<svg fill="none" xmlns="http://www.w3.org/2000/svg">
    <path
        d="M10.464 16.7201C11.4454 16.7201 12.2987 17.0827 13.024 17.8081C13.7494 18.5334 14.112 19.3867 14.112 20.3681V46.3521C14.112 47.3334 13.7494 48.1867 13.024 48.9121C12.2987 49.6374 11.4454 50.0001 10.464 50.0001H4.96003C3.9787 50.0001 3.12537 49.6374 2.40004 48.9121C1.6747 48.1867 1.31204 47.3334 1.31204 46.3521V20.3681C1.31204 19.3867 1.6747 18.5334 2.40004 17.8081C3.12537 17.0827 3.9787 16.7201 4.96003 16.7201H10.464ZM7.5 0.5C10.6381 0.5 13.5 2.00006 14 5.5C14.5 8.99994 10.5 15.5 7.50001 15.5C4.81055 15.5 0.254699 9.45583 1 5.5C1.61565 2.2323 4.36193 0.5 7.5 0.5Z"
        fill="black" />
    <path
        d="M32.6515 2.00006C33.6329 2.00006 34.4862 2.36273 35.2115 3.08807C35.9369 3.8134 36.2996 4.66673 36.2996 5.64807V46.3521C36.2996 47.3334 35.9369 48.1867 35.2115 48.9121C34.4862 49.6374 33.6329 50.0001 32.6515 50.0001H27.1475C26.1662 50.0001 25.3129 49.6374 24.5875 48.9121C23.8622 48.1867 23.4995 47.3334 23.4995 46.3521V5.64807C23.4995 4.66673 23.8622 3.8134 24.5875 3.08807C25.3129 2.36273 26.1662 2.00006 27.1475 2.00006H32.6515Z"
        fill="black" />
    <path
        d="M64.921 30.1601C65.305 30.1601 65.497 29.9681 65.497 29.5841C65.4544 27.6214 65.0277 26.2134 64.217 25.3601C63.449 24.5067 62.2757 24.0801 60.6971 24.0801C59.0331 24.0801 57.7744 24.5067 56.9211 25.3601C56.1104 26.1707 55.5984 27.6001 55.385 29.6481C55.385 29.9894 55.5557 30.1601 55.897 30.1601H64.921ZM60.3771 16.0801C71.2144 16.0801 76.6544 21.7974 76.697 33.2321C76.697 34.2561 76.313 35.1307 75.545 35.8561C74.777 36.5387 73.8597 36.8801 72.793 36.8801H56.0251C55.6411 36.8801 55.4917 37.0721 55.577 37.4561C55.961 39.2481 56.7931 40.5067 58.0731 41.2321C59.3957 41.9574 61.4437 42.3201 64.217 42.3201C65.9664 42.3201 68.0997 42.0641 70.617 41.5521C71.513 41.3387 72.3237 41.5307 73.049 42.1281C73.7744 42.6827 74.137 43.4294 74.137 44.3681V45.3921C74.137 46.4587 73.7957 47.4401 73.113 48.3361C72.473 49.1894 71.641 49.7014 70.617 49.8721C68.0144 50.3841 65.2411 50.6401 62.2971 50.6401C56.2384 50.6401 51.5664 49.1681 48.2811 46.2241C45.0384 43.2374 43.417 38.9494 43.417 33.3601C43.417 27.8134 44.8677 23.5467 47.7691 20.5601C50.6704 17.5734 54.8731 16.0801 60.3771 16.0801Z"
        fill="black" />
    <path
        d="M97.2445 28.5601C102.109 29.2001 105.565 30.4374 107.613 32.2721C109.661 34.0641 110.685 36.6667 110.685 40.0801C110.685 43.4507 109.469 46.0534 107.037 47.8881C104.605 49.7227 101.021 50.6401 96.2845 50.6401C92.7859 50.6401 89.2659 50.2987 85.7245 49.6161C84.7005 49.4027 83.8472 48.8694 83.1645 48.0161C82.5245 47.1627 82.2045 46.1814 82.2045 45.0721V43.4081C82.2045 42.5121 82.5672 41.8081 83.2925 41.2961C84.0179 40.7841 84.8072 40.6347 85.6605 40.8481C88.8605 41.6161 91.8685 42.0001 94.6845 42.0001C97.0312 42.0001 98.2045 41.3174 98.2045 39.9521C98.2045 39.3121 98.0125 38.8427 97.6285 38.5441C97.2445 38.2454 96.4765 38.0107 95.3245 37.8401C90.5885 37.0721 87.1539 35.7494 85.0205 33.8721C82.9299 31.9947 81.8845 29.4774 81.8845 26.3201C81.8845 23.0774 83.1219 20.5601 85.5965 18.7681C88.1139 16.9761 91.8899 16.0801 96.9245 16.0801C100.253 16.0801 103.325 16.2934 106.141 16.7201C107.207 16.8907 108.061 17.3814 108.701 18.1921C109.383 19.0027 109.725 19.9414 109.725 21.0081V22.3521C109.725 23.2481 109.341 23.9947 108.573 24.5921C107.847 25.1467 107.037 25.3387 106.141 25.1681C103.538 24.6561 100.871 24.4001 98.1405 24.4001C96.7325 24.4001 95.7512 24.5494 95.1965 24.8481C94.6419 25.1467 94.3645 25.6374 94.3645 26.3201C94.3645 27.6001 95.3245 28.3467 97.2445 28.5601Z"
        fill="black" />
    <path
        d="M167.875 20.8801C170.52 17.6801 173.784 16.0801 177.667 16.0801C181.55 16.0801 184.323 17.1894 185.987 19.4081C187.694 21.6267 188.547 25.4241 188.547 30.8001V46.3521C188.547 47.3334 188.184 48.1867 187.459 48.9121C186.734 49.6374 185.88 50.0001 184.899 50.0001H180.355C179.374 50.0001 178.52 49.6374 177.795 48.9121C177.07 48.1867 176.707 47.3334 176.707 46.3521V30.8001C176.707 28.8374 176.43 27.4934 175.875 26.7681C175.32 26.0427 174.318 25.6801 172.867 25.6801C171.672 25.6801 170.563 26.1494 169.539 27.0881C168.558 28.0267 168.067 29.0507 168.067 30.1601V46.3521C168.067 47.3334 167.704 48.1867 166.979 48.9121C166.254 49.6374 165.4 50.0001 164.419 50.0001H159.555C158.574 50.0001 157.72 49.6374 156.995 48.9121C156.27 48.1867 155.907 47.3334 155.907 46.3521V20.3681C155.907 19.3867 156.27 18.5334 156.995 17.8081C157.72 17.0827 158.574 16.7201 159.555 16.7201H163.907C164.931 16.7201 165.806 17.0827 166.531 17.8081C167.256 18.4907 167.64 19.3441 167.683 20.3681V20.8801C167.683 20.9227 167.704 20.9441 167.747 20.9441C167.832 20.9441 167.875 20.9227 167.875 20.8801Z"
        fill="black" />
    <path
        d="M207.994 36.5601C208.975 36.5601 209.829 36.9227 210.554 37.6481C211.279 38.3734 211.642 39.2267 211.642 40.2081V46.3521C211.642 47.3334 211.279 48.1867 210.554 48.9121C209.829 49.6374 208.975 50.0001 207.994 50.0001H201.21C200.229 50.0001 199.375 49.6374 198.65 48.9121C197.925 48.1867 197.562 47.3334 197.562 46.3521V40.2081C197.562 39.2267 197.925 38.3734 198.65 37.6481C199.375 36.9227 200.229 36.5601 201.21 36.5601H207.994Z"
        fill="black" />
    <path
        d="M259.049 16.0801C262.719 16.0801 265.385 17.0827 267.049 19.0881C268.756 21.0507 269.609 24.3147 269.609 28.8801V46.3521C269.609 47.3334 269.247 48.1867 268.522 48.9121C267.796 49.6374 266.943 50.0001 265.962 50.0001H261.418C260.436 50.0001 259.583 49.6374 258.858 48.9121C258.175 48.1867 257.834 47.3334 257.834 46.3521V28.8801C257.834 27.4294 257.62 26.4481 257.193 25.9361C256.767 25.4241 255.999 25.1681 254.89 25.1681C254.036 25.1681 253.226 25.4454 252.458 26.0001C251.732 26.5547 251.37 27.0881 251.37 27.6001V46.3521C251.37 47.3334 251.007 48.1867 250.282 48.9121C249.556 49.6374 248.703 50.0001 247.722 50.0001H243.178C242.196 50.0001 241.343 49.6374 240.618 48.9121C239.935 48.1867 239.594 47.3334 239.594 46.3521V28.8801C239.594 27.4294 239.38 26.4481 238.954 25.9361C238.527 25.4241 237.759 25.1681 236.65 25.1681C235.796 25.1681 234.986 25.4454 234.218 26.0001C233.492 26.5547 233.13 27.0881 233.13 27.6001V46.3521C233.13 47.3334 232.767 48.1867 232.042 48.9121C231.316 49.6374 230.463 50.0001 229.482 50.0001H224.618C223.636 50.0001 222.783 49.6374 222.058 48.9121C221.332 48.1867 220.97 47.3334 220.97 46.3521V20.3681C220.97 19.3867 221.332 18.5334 222.058 17.8081C222.783 17.0827 223.636 16.7201 224.618 16.7201H228.522C229.546 16.7201 230.42 17.0827 231.146 17.8081C231.871 18.4907 232.276 19.3441 232.362 20.3681L232.426 21.1361C232.426 21.1787 232.447 21.2001 232.49 21.2001C232.575 21.2001 232.618 21.1787 232.618 21.1361C233.77 19.5574 235.135 18.3201 236.714 17.4241C238.335 16.5281 239.914 16.0801 241.45 16.0801C243.412 16.0801 244.97 16.4214 246.122 17.1041C247.316 17.7867 248.447 19.0241 249.514 20.8161C249.514 20.8587 249.535 20.8801 249.578 20.8801C249.663 20.8801 249.727 20.8587 249.77 20.8161C252.927 17.6587 256.02 16.0801 259.049 16.0801Z"
        fill="black" />
    <path
        d="M296.609 30.1601C296.993 30.1601 297.185 29.9681 297.185 29.5841C297.142 27.6214 296.715 26.2134 295.905 25.3601C295.137 24.5067 293.963 24.0801 292.385 24.0801C290.721 24.0801 289.462 24.5067 288.609 25.3601C287.798 26.1707 287.286 27.6001 287.073 29.6481C287.073 29.9894 287.243 30.1601 287.585 30.1601H296.609ZM292.065 16.0801C302.902 16.0801 308.342 21.7974 308.385 33.2321C308.385 34.2561 308.001 35.1307 307.233 35.8561C306.465 36.5387 305.547 36.8801 304.48 36.8801H287.713C287.329 36.8801 287.179 37.0721 287.265 37.4561C287.649 39.2481 288.48 40.5067 289.76 41.2321C291.083 41.9574 293.131 42.3201 295.905 42.3201C297.654 42.3201 299.787 42.0641 302.305 41.5521C303.201 41.3387 304.011 41.5307 304.737 42.1281C305.462 42.6827 305.825 43.4294 305.825 44.3681V45.3921C305.825 46.4587 305.483 47.4401 304.801 48.3361C304.161 49.1894 303.329 49.7014 302.305 49.8721C299.702 50.3841 296.928 50.6401 293.984 50.6401C287.926 50.6401 283.254 49.1681 279.969 46.2241C276.726 43.2374 275.105 38.9494 275.105 33.3601C275.105 27.8134 276.555 23.5467 279.457 20.5601C282.358 17.5734 286.561 16.0801 292.065 16.0801Z"
        fill="black" />
    <path
        d="M147.068 19.2084C147.667 22.3977 147.223 45.1836 147.124 48.2085C147.024 51.2333 137.351 51.0836 137.218 48.2085C137.085 45.3333 137.193 44.9599 137.193 44.9599C135.442 48.1361 131.818 49.9337 127.65 49.9337C119.738 49.9337 114 43.2824 114 33.7557C114 24.229 119.738 17.5776 127.65 17.5776C131.818 17.5776 135.442 19.3753 137.193 22.5506C137.193 22.5506 137.042 21.8977 137.163 19.2084C137.284 16.5192 146.47 16.0192 147.068 19.2084ZM123.228 34.1968C123.228 38.9194 125.902 41.9598 130.271 41.9598C134.64 41.9598 137.314 38.9194 137.314 34.1968C137.314 29.4743 134.64 26.4339 130.271 26.4339C125.902 26.4339 123.228 29.4743 123.228 34.1968Z"
        fill="black" />
</svg>