<svg width="196" height="33" viewBox="0 0 196 33" fill="none" xmlns="http://www.w3.org/2000/svg">
    <path
        d="M6.08484 10.6753C6.71041 10.6753 7.25438 10.914 7.71676 11.3914C8.17914 11.8688 8.41033 12.4304 8.41033 13.0763V30.1778C8.41033 30.8237 8.17914 31.3853 7.71676 31.8627C7.25438 32.3401 6.71041 32.5788 6.08484 32.5788H2.57621C1.95064 32.5788 1.40666 32.3401 0.944286 31.8627C0.481908 31.3853 0.25072 30.8237 0.25072 30.1778V13.0763C0.25072 12.4304 0.481908 11.8688 0.944286 11.3914C1.40666 10.914 1.95064 10.6753 2.57621 10.6753H6.08484ZM4.19536 0C6.19578 0 8.02017 0.987277 8.33891 3.29078C8.65765 5.59429 6.10777 9.87234 4.19536 9.87234C2.48092 9.87234 -0.423301 5.89434 0.0518061 3.29078C0.444266 1.14012 2.19493 0 4.19536 0Z"
        fill="black" />
    <path
        d="M20.2287 0.987277C20.8543 0.987277 21.3982 1.22597 21.8606 1.70335C22.323 2.18073 22.5542 2.74236 22.5542 3.38823V30.1778C22.5542 30.8237 22.323 31.3853 21.8606 31.8627C21.3982 32.3401 20.8543 32.5788 20.2287 32.5788H16.7201C16.0945 32.5788 15.5505 32.3401 15.0881 31.8627C14.6258 31.3853 14.3946 30.8237 14.3946 30.1778V3.38823C14.3946 2.74236 14.6258 2.18073 15.0881 1.70335C15.5505 1.22597 16.0945 0.987277 16.7201 0.987277H20.2287Z"
        fill="black" />
    <path
        d="M40.7995 19.521C41.0443 19.521 41.1667 19.3946 41.1667 19.1419C41.1395 17.8501 40.8675 16.9234 40.3507 16.3618C39.8612 15.8002 39.1132 15.5194 38.1068 15.5194C37.0461 15.5194 36.2437 15.8002 35.6998 16.3618C35.183 16.8954 34.8566 17.8361 34.7206 19.184C34.7206 19.4086 34.8294 19.521 35.047 19.521H40.7995ZM37.9029 10.2541C44.8113 10.2541 48.2791 14.017 48.3063 21.5428C48.3063 22.2168 48.0616 22.7924 47.572 23.2698C47.0824 23.7191 46.4976 23.9438 45.8177 23.9438H35.1286C34.8838 23.9438 34.7886 24.0701 34.843 24.3229C35.0878 25.5023 35.6182 26.3307 36.4341 26.8081C37.2773 27.2854 38.5828 27.5241 40.3507 27.5241C41.4659 27.5241 42.8258 27.3557 44.4305 27.0187C45.0017 26.8783 45.5185 27.0046 45.9809 27.3978C46.4432 27.7628 46.6744 28.2543 46.6744 28.872V29.546C46.6744 30.248 46.4568 30.8939 46.0217 31.4836C45.6137 32.0452 45.0833 32.3822 44.4305 32.4945C42.7714 32.8315 41.0035 33 39.1268 33C35.2646 33 32.2863 32.0312 30.192 30.0936C28.1249 28.1279 27.0914 25.3057 27.0914 21.6271C27.0914 17.9765 28.0161 15.1684 29.8656 13.2027C31.7152 11.237 34.3942 10.2541 37.9029 10.2541Z"
        fill="black" />
    <path
        d="M61.4047 18.4679C64.5054 18.8891 66.7085 19.7035 68.014 20.911C69.3196 22.0904 69.9723 23.8034 69.9723 26.0499C69.9723 28.2683 69.1972 29.9813 67.6468 31.1888C66.0965 32.3963 63.8118 33 60.7928 33C58.5625 33 56.3186 32.7754 54.0611 32.326C53.4083 32.1856 52.8644 31.8346 52.4292 31.273C52.0212 30.7114 51.8172 30.0655 51.8172 29.3354V28.2402C51.8172 27.6505 52.0484 27.1872 52.5108 26.8502C52.9731 26.5132 53.4763 26.4149 54.0203 26.5553C56.0602 27.0608 57.9777 27.3135 59.7728 27.3135C61.2687 27.3135 62.0167 26.8642 62.0167 25.9656C62.0167 25.5444 61.8943 25.2355 61.6495 25.0389C61.4047 24.8424 60.9152 24.6879 60.1808 24.5756C57.1617 24.0701 54.9722 23.1996 53.6123 21.964C52.2796 20.7285 51.6132 19.0717 51.6132 16.9936C51.6132 14.8595 52.402 13.2027 53.9795 12.0232C55.5842 10.8438 57.9913 10.2541 61.2008 10.2541C63.3223 10.2541 65.2806 10.3945 67.0757 10.6753C67.7556 10.7877 68.2996 11.1106 68.7076 11.6441C69.1428 12.1777 69.3604 12.7955 69.3604 13.4975V14.3821C69.3604 14.9718 69.1156 15.4632 68.626 15.8563C68.1636 16.2214 67.6468 16.3478 67.0757 16.2354C65.4165 15.8985 63.7166 15.73 61.9759 15.73C61.0784 15.73 60.4528 15.8283 60.0992 16.0248C59.7456 16.2214 59.5688 16.5443 59.5688 16.9936C59.5688 17.8361 60.1808 18.3275 61.4047 18.4679Z"
        fill="black" />
    <path
        d="M106.43 13.4133C108.116 11.3072 110.197 10.2541 112.672 10.2541C115.147 10.2541 116.915 10.9842 117.975 12.4445C119.063 13.9047 119.607 16.4039 119.607 19.9422V30.1778C119.607 30.8237 119.376 31.3853 118.914 31.8627C118.451 32.3401 117.907 32.5788 117.282 32.5788H114.385C113.76 32.5788 113.216 32.3401 112.753 31.8627C112.291 31.3853 112.06 30.8237 112.06 30.1778V19.9422C112.06 18.6504 111.883 17.7659 111.529 17.2885C111.176 16.8111 110.537 16.5724 109.612 16.5724C108.85 16.5724 108.143 16.8813 107.49 17.4991C106.865 18.1169 106.552 18.7908 106.552 19.521V30.1778C106.552 30.8237 106.321 31.3853 105.858 31.8627C105.396 32.3401 104.852 32.5788 104.226 32.5788H101.126C100.5 32.5788 99.9562 32.3401 99.4939 31.8627C99.0315 31.3853 98.8003 30.8237 98.8003 30.1778V13.0763C98.8003 12.4304 99.0315 11.8688 99.4939 11.3914C99.9562 10.914 100.5 10.6753 101.126 10.6753H103.9C104.553 10.6753 105.11 10.914 105.573 11.3914C106.035 11.8407 106.28 12.4023 106.307 13.0763V13.4133C106.307 13.4413 106.321 13.4554 106.348 13.4554C106.402 13.4554 106.43 13.4413 106.43 13.4133Z"
        fill="black" />
    <path
        d="M132.004 23.7332C132.63 23.7332 133.174 23.9719 133.636 24.4492C134.098 24.9266 134.33 25.4882 134.33 26.1341V30.1778C134.33 30.8237 134.098 31.3853 133.636 31.8627C133.174 32.3401 132.63 32.5788 132.004 32.5788H127.68C127.054 32.5788 126.51 32.3401 126.048 31.8627C125.585 31.3853 125.354 30.8237 125.354 30.1778V26.1341C125.354 25.4882 125.585 24.9266 126.048 24.4492C126.51 23.9719 127.054 23.7332 127.68 23.7332H132.004Z"
        fill="black" />
    <path
        d="M164.55 10.2541C166.89 10.2541 168.589 10.914 169.65 12.2339C170.738 13.5256 171.282 15.6738 171.282 18.6785V30.1778C171.282 30.8237 171.051 31.3853 170.589 31.8627C170.126 32.3401 169.582 32.5788 168.957 32.5788H166.06C165.434 32.5788 164.89 32.3401 164.428 31.8627C163.993 31.3853 163.775 30.8237 163.775 30.1778V18.6785C163.775 17.7238 163.639 17.0779 163.367 16.7409C163.095 16.4039 162.606 16.2354 161.899 16.2354C161.355 16.2354 160.838 16.418 160.348 16.783C159.886 17.1481 159.655 17.4991 159.655 17.8361V30.1778C159.655 30.8237 159.424 31.3853 158.961 31.8627C158.499 32.3401 157.955 32.5788 157.329 32.5788H154.433C153.807 32.5788 153.263 32.3401 152.801 31.8627C152.365 31.3853 152.148 30.8237 152.148 30.1778V18.6785C152.148 17.7238 152.012 17.0779 151.74 16.7409C151.468 16.4039 150.978 16.2354 150.271 16.2354C149.727 16.2354 149.21 16.418 148.721 16.783C148.258 17.1481 148.027 17.4991 148.027 17.8361V30.1778C148.027 30.8237 147.796 31.3853 147.334 31.8627C146.871 32.3401 146.327 32.5788 145.702 32.5788H142.601C141.976 32.5788 141.432 32.3401 140.969 31.8627C140.507 31.3853 140.276 30.8237 140.276 30.1778V13.0763C140.276 12.4304 140.507 11.8688 140.969 11.3914C141.432 10.914 141.976 10.6753 142.601 10.6753H145.09C145.743 10.6753 146.3 10.914 146.763 11.3914C147.225 11.8407 147.483 12.4023 147.538 13.0763L147.578 13.5818C147.578 13.6098 147.592 13.6239 147.619 13.6239C147.674 13.6239 147.701 13.6098 147.701 13.5818C148.435 12.5427 149.306 11.7284 150.312 11.1387C151.346 10.549 152.352 10.2541 153.331 10.2541C154.582 10.2541 155.575 10.4788 156.309 10.9281C157.071 11.3774 157.792 12.1917 158.472 13.3711C158.472 13.3992 158.485 13.4133 158.512 13.4133C158.567 13.4133 158.608 13.3992 158.635 13.3711C160.647 11.2931 162.619 10.2541 164.55 10.2541Z"
        fill="black" />
    <path
        d="M188.493 19.521C188.738 19.521 188.86 19.3946 188.86 19.1419C188.833 17.8501 188.561 16.9234 188.044 16.3618C187.555 15.8002 186.807 15.5194 185.8 15.5194C184.74 15.5194 183.937 15.8002 183.393 16.3618C182.877 16.8954 182.55 17.8361 182.414 19.184C182.414 19.4086 182.523 19.521 182.741 19.521H188.493ZM185.596 10.2541C192.505 10.2541 195.973 14.017 196 21.5428C196 22.2168 195.755 22.7924 195.266 23.2698C194.776 23.7191 194.191 23.9438 193.511 23.9438H182.822C182.577 23.9438 182.482 24.0701 182.537 24.3229C182.781 25.5023 183.312 26.3307 184.128 26.8081C184.971 27.2854 186.276 27.5241 188.044 27.5241C189.16 27.5241 190.519 27.3557 192.124 27.0187C192.695 26.8783 193.212 27.0046 193.675 27.3978C194.137 27.7628 194.368 28.2543 194.368 28.872V29.546C194.368 30.248 194.15 30.8939 193.715 31.4836C193.307 32.0452 192.777 32.3822 192.124 32.4945C190.465 32.8315 188.697 33 186.82 33C182.958 33 179.98 32.0312 177.886 30.0936C175.819 28.1279 174.785 25.3057 174.785 21.6271C174.785 17.9765 175.71 15.1684 177.559 13.2027C179.409 11.237 182.088 10.2541 185.596 10.2541Z"
        fill="black" />
    <path
        d="M93.166 12.3131C93.5475 14.4121 93.2646 29.4088 93.2011 31.3996C93.1376 33.3905 86.9714 33.2919 86.8866 31.3996C86.8019 29.5073 86.8707 29.2616 86.8707 29.2616C85.7545 31.352 83.4441 32.5351 80.7873 32.5351C75.7435 32.5351 72.0859 28.1575 72.0859 21.8874C72.0859 15.6174 75.7435 11.2398 80.7873 11.2398C83.4441 11.2398 85.7545 12.4229 86.8707 14.5127C86.8707 14.5127 86.7743 14.083 86.8515 12.3131C86.9287 10.5432 92.7844 10.2141 93.166 12.3131ZM77.9683 22.1778C77.9683 25.286 79.6728 27.287 82.4581 27.287C85.2435 27.287 86.9479 25.286 86.9479 22.1778C86.9479 19.0696 85.2435 17.0685 82.4581 17.0685C79.6728 17.0685 77.9683 19.0696 77.9683 22.1778Z"
        fill="black" />
</svg>